<?xml version="1.0" encoding="utf-8"?>
<!-- Generator: Adobe Illustrator 27.1.1, SVG Export Plug-In . SVG Version: 6.00 Build 0)  -->
<svg version="1.1" id="Layer_1" xmlns="http://www.w3.org/2000/svg" xmlns:xlink="http://www.w3.org/1999/xlink" x="0px" y="0px"
	 viewBox="0 0 17.2 17.3" style="enable-background:new 0 0 17.2 17.3;" xml:space="preserve">
<style type="text/css">
	.st0{fill:#87BA45;}
</style>
<g id="Layer_2_00000051362604480960228850000011139383794676763287_">
	<g id="Layer_1-2">
		<path class="st0" d="M17.2,2.5l-3.4,13.3c-0.2,0.9-1.1,1.5-2,1.5c-0.9,0-1.7-0.7-1.9-1.6L8.8,10C8.7,9.6,8.5,9.3,8.3,9
			C8,8.7,7.7,8.5,7.3,8.4L1.7,7.3C1.3,7.3,0.9,7.1,0.6,6.8C0.2,6.4,0,6,0,5.5c0-0.9,0.6-1.8,1.5-2l13.2-3.4c1.1-0.3,2.2,0.4,2.4,1.5
			c0,0.2,0.1,0.3,0.1,0.5C17.2,2.2,17.2,2.3,17.2,2.5z"/>
	</g>
</g>
</svg>
